<?xml version="1.0" encoding="utf-8"?>
<?xml-stylesheet type="text/css" href="../style.css"?>
<svg xmlns="http://www.w3.org/2000/svg" viewBox="0 0 800 800">
<rect class="borderStyle" id="bkground" width="100%" height="100%"></rect>
<!-- series of circles -->
    <circle class="dotStyle" cx="0" cy="0" r="0"></circle>
    <circle class="dotStyle" cx="0" cy="0" r="0"></circle>
    <circle class="dotStyle" cx="0" cy="0" r="0"></circle>
    <circle class="dotStyle" cx="0" cy="0" r="0"></circle>
    <circle class="dotStyle" cx="0" cy="0" r="0"></circle>
    <circle class="dotStyle" cx="0" cy="0" r="0"></circle>
    <circle class="dotStyle" cx="0" cy="0" r="0"></circle>
    <circle class="dotStyle" cx="0" cy="0" r="0"></circle>
    <circle class="dotStyle" cx="0" cy="0" r="0"></circle>
    <circle class="dotStyle" cx="0" cy="0" r="0"></circle>
    <circle class="dotStyle" cx="0" cy="0" r="0"></circle>
    <circle class="dotStyle" cx="0" cy="0" r="0"></circle>
    <circle class="dotStyle" cx="0" cy="0" r="0"></circle>
    <circle class="dotStyle" cx="0" cy="0" r="0"></circle>
    <circle class="dotStyle" cx="0" cy="0" r="0"></circle>
    <circle class="dotStyle" cx="0" cy="0" r="0"></circle>
    <circle class="dotStyle" cx="0" cy="0" r="0"></circle>
    <circle class="dotStyle" cx="0" cy="0" r="0"></circle>
    <circle class="dotStyle" cx="0" cy="0" r="0"></circle>
    <circle class="dotStyle" cx="0" cy="0" r="0"></circle>
    <circle class="dotStyle" cx="0" cy="0" r="0"></circle>
    <circle class="dotStyle" cx="0" cy="0" r="0"></circle>
    <circle class="dotStyle" cx="0" cy="0" r="0"></circle>
    <circle class="dotStyle" cx="0" cy="0" r="0"></circle>
    <circle class="dotStyle" cx="0" cy="0" r="0"></circle>
    <circle class="dotStyle" cx="0" cy="0" r="0"></circle>
    <circle class="dotStyle" cx="0" cy="0" r="0"></circle>
    <circle class="dotStyle" cx="0" cy="0" r="0"></circle>
    <circle class="dotStyle" cx="0" cy="0" r="0"></circle>
    <circle class="dotStyle" cx="0" cy="0" r="0"></circle>
    <circle class="dotStyle" cx="0" cy="0" r="0"></circle>
    <circle class="dotStyle" cx="0" cy="0" r="0"></circle>
    <circle class="dotStyle" cx="0" cy="0" r="0"></circle>
    <circle class="dotStyle" cx="0" cy="0" r="0"></circle>
    <circle class="dotStyle" cx="0" cy="0" r="0"></circle>
    <circle class="dotStyle" cx="0" cy="0" r="0"></circle>
    <circle class="dotStyle" cx="0" cy="0" r="0"></circle>
    <circle class="dotStyle" cx="0" cy="0" r="0"></circle>
    <circle class="dotStyle" cx="0" cy="0" r="0"></circle>
    <circle class="dotStyle" cx="0" cy="0" r="0"></circle>

</svg>